<?xml version="1.0" encoding="iso-8859-1"?>
<!-- Uploaded to: SVG Repo, www.svgrepo.com, Generator: SVG Repo Mixer Tools -->
<!DOCTYPE svg PUBLIC "-//W3C//DTD SVG 1.1//EN" "http://www.w3.org/Graphics/SVG/1.1/DTD/svg11.dtd">
<svg fill="#fff" height="800px" width="800px" version="1.1" id="Capa_1" xmlns="http://www.w3.org/2000/svg" xmlns:xlink="http://www.w3.org/1999/xlink" 
	 viewBox="0 0 470 470" xml:space="preserve">
<g>
	<path d="M273.767,246.447c57.396-0.936,111.06-29.321,144.001-76.365c33.742-48.188,41.662-109.94,21.187-165.186
		c-1.084-2.926-3.868-4.875-6.989-4.894L430.912,0c-58.499,0-113.424,28.564-146.925,76.409
		c-32.982,47.102-41.275,107.161-22.51,161.439L235,275.659l-26.476-37.811c18.765-54.279,10.471-114.337-22.51-161.439
		C152.512,28.564,97.588,0,39.089,0l-1.053,0.003c-3.121,0.019-5.904,1.967-6.989,4.894
		C10.572,60.143,18.491,121.895,52.233,170.083c32.942,47.046,86.601,75.429,144.001,76.365L227.5,291.1v83.641
		c-65.192,2.142-125.78,32.124-167.174,83.028c-2.613,3.214-2.126,7.938,1.087,10.551c3.213,2.614,7.937,2.127,10.551-1.087
		c40.117-49.333,99.542-77.627,163.037-77.627s122.919,28.294,163.037,77.627c1.482,1.823,3.644,2.768,5.823,2.768
		c1.663,0,3.337-0.55,4.728-1.681c3.213-2.613,3.7-7.337,1.087-10.551C368.28,406.864,307.692,376.882,242.5,374.74V291.1
		L273.767,246.447z M296.274,85.012c29.878-42.67,78.361-68.604,130.359-69.957c16.522,49.34,8.76,103.703-21.153,146.423
		c-28.046,40.053-72.483,65.357-120.833,69.43l49.998-71.403l58.119-10.248c4.08-0.719,6.803-4.609,6.084-8.688
		c-0.719-4.079-4.607-6.8-8.688-6.084l-43.347,7.644l69.148-98.751c2.376-3.393,1.551-8.069-1.842-10.445
		c-3.394-2.376-8.069-1.551-10.445,1.842l-69.15,98.754l-7.644-43.35c-0.719-4.079-4.605-6.803-8.688-6.084
		c-4.079,0.719-6.803,4.609-6.084,8.688l10.249,58.122l-49.998,71.403C259.636,175.473,268.195,125.114,296.274,85.012z
		 M64.52,161.479C34.607,118.758,26.845,64.396,43.367,15.056c51.998,1.353,100.481,27.287,130.359,69.957
		c28.08,40.102,36.638,90.461,23.916,137.295l-49.998-71.403l10.249-58.122c0.719-4.079-2.005-7.969-6.084-8.688
		c-4.076-0.72-7.969,2.004-8.688,6.084l-7.644,43.35l-69.15-98.754c-2.375-3.394-7.053-4.217-10.445-1.842
		c-3.393,2.376-4.218,7.052-1.842,10.445l69.148,98.751l-43.347-7.644c-4.075-0.72-7.969,2.004-8.688,6.084
		c-0.719,4.079,2.004,7.969,6.084,8.688l58.119,10.248l49.998,71.403C137.003,226.836,92.566,201.532,64.52,161.479z"/>
	<path d="M284.777,410.766c-4.411,0-8,3.589-8,8s3.589,8,8,8s8-3.589,8-8S289.188,410.766,284.777,410.766z"/>
	<path d="M322.757,425.837c-4.411,0-8,3.589-8,8s3.589,8,8,8s8-3.589,8-8S327.168,425.837,322.757,425.837z"/>
	<path d="M147.244,425.837c-4.411,0-8,3.589-8,8s3.589,8,8,8s8-3.589,8-8S151.655,425.837,147.244,425.837z"/>
</g>
</svg>