<?xml version="1.0" encoding="iso-8859-1"?>
<!-- Uploaded to: SVG Repo, www.svgrepo.com, Generator: SVG Repo Mixer Tools -->
<svg fill="#fff" height="800px" width="800px" version="1.1" id="Layer_1" xmlns="http://www.w3.org/2000/svg" xmlns:xlink="http://www.w3.org/1999/xlink" 
	 viewBox="0 0 512 512" xml:space="preserve">
<g>
	<g>
		<path d="M445.217,233.517h-9.439c5.61-12.065,9.439-26.268,9.439-42.207c0-46.97-32.456-91.359-66.783-91.359H89.043
			c-37.465,0-66.783,39.112-66.783,89.044c0,20.814,5.298,39.513,13.958,54.517C14.625,258.093,0,287.477,0,322.56
			c0,49.931,29.318,89.044,66.783,89.044c17.341,0,32.768-8.637,44.522-22.595c10.752,12.778,24.643,20.747,40.225,22.038
			l-0.022,0.712c1.781,0.2,3.584,0.289,5.387,0.289c1.358,0,2.738-0.044,4.118-0.178l282.824-0.267
			c11.598,1.224,24.109-3.406,35.417-13C495.082,385.18,512,358.756,512,324.875C512,277.905,479.544,233.517,445.217,233.517z
			 M110.191,201.55c-0.178,1.024-0.356,2.048-0.557,3.05c-0.601,2.872-1.358,5.543-2.226,8.081
			c-4.586,13.067-12.333,20.836-18.365,20.836c-9.082,0-22.261-17.341-22.261-44.522c0-27.181,13.178-44.522,22.261-44.522
			c9.082,0,22.261,17.341,22.261,44.522C111.304,193.447,110.837,197.587,110.191,201.55z M176.974,335.115
			c-0.178,1.024-0.356,2.048-0.557,3.05c-0.601,2.872-1.358,5.543-2.226,8.081c-4.586,13.067-12.333,20.836-18.365,20.836
			c-9.082,0-22.261-17.341-22.261-44.522c0-26.268,12.288-43.186,21.304-44.299h1.892c9.038,1.091,21.326,18.031,21.326,44.299
			C178.087,327.012,177.62,331.153,176.974,335.115z M447.043,367.082l-233.005,0.223c0.668-1.581,0.935-3.428,1.514-5.076
			c1.38-3.762,2.515-7.658,3.495-11.687c0.534-2.337,1.18-4.586,1.581-6.99c1.18-6.745,1.981-13.69,1.981-20.992
			c0-6.812-0.646-13.334-1.67-19.679c-1.291-8.838-3.183-17.23-6.122-24.687l162.237-0.156h67.606
			c5.966,1.937,22.817,20.747,22.817,46.837C467.478,347.626,453.076,364.255,447.043,367.082z"/>
	</g>
</g>
</svg>